<svg aria-hidden="true" style="position: absolute; width: 0; height: 0; overflow: hidden;" version="1.1" xmlns="http://www.w3.org/2000/svg" xmlns:xlink="http://www.w3.org/1999/xlink">
<defs>
<symbol id="icon-chevron-small-down" viewBox="0 0 20 20">
<path d="M13.418 7.859c0.271-0.268 0.709-0.268 0.978 0s0.272 0.701 0 0.969l-3.908 3.83c-0.27 0.268-0.707 0.268-0.979 0l-3.908-3.83c-0.27-0.267-0.27-0.701 0-0.969s0.709-0.268 0.978 0l3.421 3.141 3.418-3.141z"></path>
</symbol>
<symbol id="icon-light-up" viewBox="0 0 20 20">
<path d="M19 9.199c-0.182 0-0.799 0-0.98 0-0.553 0-1 0.359-1 0.801s0.447 0.799 1 0.799c0.182 0 0.799 0 0.98 0 0.552 0 1-0.357 1-0.799 0-0.441-0.449-0.801-1-0.801zM10 4.5c-3.051 0-5.5 2.449-5.5 5.5s2.449 5.5 5.5 5.5c3.050 0 5.5-2.449 5.5-5.5s-2.451-5.5-5.5-5.5zM10 14c-2.211 0-4-1.791-4-4 0-2.211 1.789-4 4-4 2.209 0 4 1.789 4 4 0 2.209-1.791 4-4 4zM3 10c0-0.441-0.449-0.801-1-0.801-0.185 0-0.816 0-1 0-0.553 0-1 0.359-1 0.801s0.447 0.799 1 0.799c0.184 0 0.815 0 1 0 0.551 0 1-0.358 1-0.799zM10 3c0.441 0 0.799-0.447 0.799-1 0-0.184 0-0.816 0-1 0-0.553-0.358-1-0.799-1s-0.801 0.447-0.801 1c0 0.184 0 0.816 0 1 0 0.553 0.359 1 0.801 1zM10 17c-0.442 0-0.801 0.447-0.801 1 0 0.184 0 0.816 0 1 0 0.553 0.359 1 0.801 1s0.799-0.447 0.799-1c0-0.184 0-0.816 0-1 0-0.553-0.358-1-0.799-1zM17.365 3.766c0.391-0.391 0.454-0.961 0.142-1.273s-0.883-0.248-1.272 0.143c-0.108 0.107-0.593 0.592-0.7 0.699-0.391 0.391-0.454 0.961-0.142 1.273s0.883 0.248 1.273-0.143c0.107-0.108 0.591-0.592 0.699-0.699zM3.334 15.533c-0.108 0.109-0.593 0.594-0.7 0.701-0.391 0.391-0.454 0.959-0.142 1.271s0.883 0.25 1.272-0.141c0.108-0.107 0.593-0.592 0.7-0.699 0.391-0.391 0.454-0.961 0.142-1.274s-0.883-0.247-1.272 0.142zM3.765 2.635c-0.39-0.391-0.961-0.455-1.273-0.143s-0.248 0.883 0.141 1.274c0.108 0.107 0.593 0.592 0.7 0.699 0.391 0.391 0.96 0.455 1.272 0.143s0.249-0.883-0.141-1.273c-0.107-0.108-0.591-0.593-0.699-0.7zM15.534 16.666c0.108 0.107 0.593 0.592 0.7 0.699 0.391 0.391 0.96 0.453 1.272 0.143 0.312-0.312 0.249-0.883-0.142-1.273-0.107-0.107-0.592-0.592-0.699-0.699-0.391-0.391-0.961-0.455-1.274-0.143s-0.248 0.882 0.143 1.273z"></path>
</symbol>
<symbol id="icon-moon" viewBox="0 0 20 20">
<path d="M13.719 1.8c0.686 0.385 1.332 0.867 1.916 1.449 3.42 3.422 3.42 8.966 0 12.386s-8.965 3.42-12.386 0c-0.583-0.584-1.065-1.231-1.449-1.916 3.335 1.867 7.633 1.387 10.469-1.449s3.318-7.134 1.45-10.47z"></path>
</symbol>
<symbol id="icon-search" viewBox="0 0 32 32">
<path d="M31.008 27.231l-7.58-6.447c-0.784-0.705-1.622-1.029-2.299-0.998 1.789-2.096 2.87-4.815 2.87-7.787 0-6.627-5.373-12-12-12s-12 5.373-12 12 5.373 12 12 12c2.972 0 5.691-1.081 7.787-2.87-0.031 0.677 0.293 1.515 0.998 2.299l6.447 7.58c1.104 1.226 2.907 1.33 4.007 0.23s0.997-2.903-0.23-4.007zM12 20c-4.418 0-8-3.582-8-8s3.582-8 8-8 8 3.582 8 8-3.582 8-8 8z"></path>
</symbol>
</defs>
</svg>
